<svg width="38" height="38" viewBox="0 0 38 38" fill="none" xmlns="http://www.w3.org/2000/svg">
<path d="M5.48779 3.10484C5.48779 1.90347 6.66055 1.05214 7.80281 1.42431L18.1963 4.81068C18.5522 4.92661 18.9356 4.92661 19.2914 4.81068L29.685 1.42431C30.8272 1.05214 32 1.90347 32 3.10484V25.7226C32 26.2664 31.7496 26.78 31.3213 27.115L19.8326 36.0985C19.193 36.5987 18.2948 36.5987 17.6551 36.0985L6.16652 27.115C5.73813 26.78 5.48779 26.2664 5.48779 25.7226V3.10484Z" fill="#0D4B54"/>
<path d="M7.25507 5.99357C7.25507 4.77739 8.45481 3.92457 9.60344 4.32428L18.1628 7.30281C18.539 7.43372 18.9484 7.43372 19.3246 7.30281L27.8839 4.32428C29.0326 3.92457 30.2323 4.77739 30.2323 5.99357V26.6676C30.2323 27.1915 29.9999 27.6884 29.5978 28.0242L19.8767 36.143C19.2207 36.6908 18.2667 36.6908 17.6107 36.143L7.88957 28.0242C7.48747 27.6884 7.25507 27.1915 7.25507 26.6676V5.99357Z" fill="url(#paint0_linear_2782_6804)"/>
<path fill-rule="evenodd" clip-rule="evenodd" d="M18.7438 7.40101C18.5474 7.40103 18.3509 7.3683 18.1628 7.30283L9.60342 4.3243C8.45479 3.92459 7.25505 4.7774 7.25505 5.99359V26.6676C7.25505 27.1915 7.48745 27.6884 7.88955 28.0242L17.6107 36.143C17.9387 36.4169 18.3413 36.5539 18.7438 36.5539V7.40101Z" fill="url(#paint1_linear_2782_6804)"/>
<mask id="path-4-outside-1_2782_6804" maskUnits="userSpaceOnUse" x="7.37286" y="12.5636" width="22" height="12" fill="black">
<rect fill="white" x="7.37286" y="12.5636" width="22" height="12"/>
<path d="M12.4699 23.7601C11.2722 23.7601 10.3177 23.3858 9.60656 22.6372C8.89541 21.8887 8.53983 20.9342 8.53983 19.7739C8.53983 18.7259 8.75973 17.7294 9.19952 16.7843C9.63931 15.8392 10.2803 15.0625 11.1224 14.4543C11.9646 13.8461 12.9143 13.542 13.9717 13.542C15.1788 13.542 16.1379 13.9163 16.8491 14.6649C17.5602 15.4134 17.9158 16.3679 17.9158 17.5282C17.9158 18.5855 17.6959 19.5868 17.2561 20.5319C16.8163 21.4676 16.1707 22.2395 15.3192 22.8478C14.477 23.456 13.5272 23.7601 12.4699 23.7601ZM12.7085 21.36C13.4103 21.36 13.9904 20.967 14.4489 20.181C14.9168 19.3949 15.1507 18.5622 15.1507 17.6826C15.1507 17.1211 15.0197 16.6954 14.7577 16.4053C14.5051 16.1059 14.1635 15.9562 13.7331 15.9562C13.0313 15.9562 12.4512 16.3492 11.9927 17.1352C11.5342 17.9212 11.3049 18.754 11.3049 19.6336C11.3049 20.195 11.4312 20.6254 11.6839 20.9249C11.9365 21.2149 12.2781 21.36 12.7085 21.36ZM23.1734 23.7461C21.9944 23.7461 21.0774 23.4186 20.4224 22.7636C19.7487 22.0898 19.4118 21.1869 19.4118 20.0546C19.4118 19.1376 19.5756 18.244 19.9031 17.3738C20.2399 16.4942 20.7172 15.7456 21.3347 15.128C22.3827 14.08 23.6694 13.556 25.1946 13.556C26.4765 13.556 27.5339 13.9116 28.3667 14.6228L27.0052 16.5457C26.4344 16.0404 25.7935 15.7877 25.0823 15.7877C24.3244 15.7877 23.6881 16.0451 23.1734 16.5597C22.8085 16.9246 22.5325 17.3738 22.3453 17.9071C22.9442 17.3925 23.6928 17.1352 24.5911 17.1352C25.3864 17.1352 26.0555 17.3738 26.5982 17.851C27.1409 18.3282 27.4123 18.9785 27.4123 19.802C27.4123 20.8874 26.9959 21.8185 26.1631 22.5951C25.3396 23.3624 24.3431 23.7461 23.1734 23.7461ZM23.1734 21.6828C23.6226 21.6828 23.9922 21.5284 24.2823 21.2196C24.5817 20.9015 24.7314 20.5365 24.7314 20.1248C24.7314 19.7973 24.6191 19.5353 24.3946 19.3388C24.1793 19.1329 23.8986 19.03 23.5524 19.03C23.0845 19.03 22.7009 19.1844 22.4015 19.4932C22.102 19.7926 21.9523 20.1529 21.9523 20.574C21.9523 20.8921 22.0552 21.1448 22.2611 21.3319C22.495 21.5658 22.7991 21.6828 23.1734 21.6828Z"/>
</mask>
<path d="M12.4699 23.7601C11.2722 23.7601 10.3177 23.3858 9.60656 22.6372C8.89541 21.8887 8.53983 20.9342 8.53983 19.7739C8.53983 18.7259 8.75973 17.7294 9.19952 16.7843C9.63931 15.8392 10.2803 15.0625 11.1224 14.4543C11.9646 13.8461 12.9143 13.542 13.9717 13.542C15.1788 13.542 16.1379 13.9163 16.8491 14.6649C17.5602 15.4134 17.9158 16.3679 17.9158 17.5282C17.9158 18.5855 17.6959 19.5868 17.2561 20.5319C16.8163 21.4676 16.1707 22.2395 15.3192 22.8478C14.477 23.456 13.5272 23.7601 12.4699 23.7601ZM12.7085 21.36C13.4103 21.36 13.9904 20.967 14.4489 20.181C14.9168 19.3949 15.1507 18.5622 15.1507 17.6826C15.1507 17.1211 15.0197 16.6954 14.7577 16.4053C14.5051 16.1059 14.1635 15.9562 13.7331 15.9562C13.0313 15.9562 12.4512 16.3492 11.9927 17.1352C11.5342 17.9212 11.3049 18.754 11.3049 19.6336C11.3049 20.195 11.4312 20.6254 11.6839 20.9249C11.9365 21.2149 12.2781 21.36 12.7085 21.36ZM23.1734 23.7461C21.9944 23.7461 21.0774 23.4186 20.4224 22.7636C19.7487 22.0898 19.4118 21.1869 19.4118 20.0546C19.4118 19.1376 19.5756 18.244 19.9031 17.3738C20.2399 16.4942 20.7172 15.7456 21.3347 15.128C22.3827 14.08 23.6694 13.556 25.1946 13.556C26.4765 13.556 27.5339 13.9116 28.3667 14.6228L27.0052 16.5457C26.4344 16.0404 25.7935 15.7877 25.0823 15.7877C24.3244 15.7877 23.6881 16.0451 23.1734 16.5597C22.8085 16.9246 22.5325 17.3738 22.3453 17.9071C22.9442 17.3925 23.6928 17.1352 24.5911 17.1352C25.3864 17.1352 26.0555 17.3738 26.5982 17.851C27.1409 18.3282 27.4123 18.9785 27.4123 19.802C27.4123 20.8874 26.9959 21.8185 26.1631 22.5951C25.3396 23.3624 24.3431 23.7461 23.1734 23.7461ZM23.1734 21.6828C23.6226 21.6828 23.9922 21.5284 24.2823 21.2196C24.5817 20.9015 24.7314 20.5365 24.7314 20.1248C24.7314 19.7973 24.6191 19.5353 24.3946 19.3388C24.1793 19.1329 23.8986 19.03 23.5524 19.03C23.0845 19.03 22.7009 19.1844 22.4015 19.4932C22.102 19.7926 21.9523 20.1529 21.9523 20.574C21.9523 20.8921 22.0552 21.1448 22.2611 21.3319C22.495 21.5658 22.7991 21.6828 23.1734 21.6828Z" fill="url(#paint2_linear_2782_6804)"/>
<path d="M9.60656 22.6372L9.25719 22.9691L9.25719 22.9691L9.60656 22.6372ZM9.19952 16.7843L9.63642 16.9876L9.63642 16.9876L9.19952 16.7843ZM11.1224 14.4543L11.4046 14.845L11.4046 14.845L11.1224 14.4543ZM16.8491 14.6649L16.4997 14.9968L16.4997 14.9968L16.8491 14.6649ZM17.2561 20.5319L17.6922 20.7368L17.693 20.7352L17.2561 20.5319ZM15.3192 22.8478L15.0391 22.4556L15.037 22.4571L15.3192 22.8478ZM14.4489 20.181L14.0348 19.9345L14.0327 19.9381L14.4489 20.181ZM14.7577 16.4053L14.3894 16.7161L14.3947 16.7223L14.4001 16.7283L14.7577 16.4053ZM11.9927 17.1352L11.5764 16.8924L11.5764 16.8924L11.9927 17.1352ZM11.6839 20.9249L11.3155 21.2357L11.3205 21.2414L11.6839 20.9249ZM12.4699 23.2782C11.3812 23.2782 10.5614 22.9426 9.95593 22.3053L9.25719 22.9691C10.0741 23.829 11.1631 24.242 12.4699 24.242V23.2782ZM9.95593 22.3053C9.34062 21.6576 9.02173 20.8272 9.02173 19.7739H8.05794C8.05794 21.0412 8.4502 22.1197 9.25719 22.9691L9.95593 22.3053ZM9.02173 19.7739C9.02173 18.7958 9.22643 17.8686 9.63642 16.9876L8.76262 16.581C8.29303 17.5901 8.05794 18.6561 8.05794 19.7739H9.02173ZM9.63642 16.9876C10.0416 16.1169 10.6294 15.4048 11.4046 14.845L10.8403 14.0637C9.93116 14.7203 9.23702 15.5615 8.76262 16.581L9.63642 16.9876ZM11.4046 14.845C12.163 14.2972 13.0137 14.0239 13.9717 14.0239V13.0601C12.815 13.0601 11.7661 13.395 10.8403 14.0637L11.4046 14.845ZM13.9717 14.0239C15.071 14.0239 15.895 14.3602 16.4997 14.9968L17.1984 14.333C16.3808 13.4723 15.2866 13.0601 13.9717 13.0601V14.0239ZM16.4997 14.9968C17.115 15.6445 17.4339 16.4748 17.4339 17.5282H18.3977C18.3977 16.2609 18.0054 15.1824 17.1984 14.333L16.4997 14.9968ZM17.4339 17.5282C17.4339 18.5163 17.2289 19.4481 16.8192 20.3285L17.693 20.7352C18.1629 19.7255 18.3977 18.6547 18.3977 17.5282H17.4339ZM16.82 20.3269C16.4158 21.1869 15.8242 21.8948 15.0391 22.4556L15.5993 23.2399C16.5171 22.5843 17.2169 21.7482 17.6922 20.7368L16.82 20.3269ZM15.037 22.4571C14.2785 23.0049 13.4279 23.2782 12.4699 23.2782V24.242C13.6266 24.242 14.6755 23.9071 15.6013 23.2384L15.037 22.4571ZM12.7085 21.8419C13.633 21.8419 14.3497 21.3074 14.8652 20.4238L14.0327 19.9381C13.6311 20.6265 13.1876 20.8781 12.7085 20.8781V21.8419ZM14.863 20.4274C15.3734 19.57 15.6326 18.6525 15.6326 17.6826H14.6688C14.6688 18.4718 14.4602 19.2199 14.0349 19.9345L14.863 20.4274ZM15.6326 17.6826C15.6326 17.0534 15.4862 16.4929 15.1153 16.0823L14.4001 16.7283C14.5532 16.8978 14.6688 17.1889 14.6688 17.6826H15.6326ZM15.126 16.0945C14.7721 15.6751 14.2897 15.4743 13.7331 15.4743V16.438C14.0374 16.438 14.2381 16.5367 14.3894 16.7161L15.126 16.0945ZM13.7331 15.4743C12.8086 15.4743 12.0919 16.0087 11.5764 16.8924L12.4089 17.378C12.8105 16.6896 13.254 16.438 13.7331 16.438V15.4743ZM11.5764 16.8924C11.0765 17.7494 10.823 18.6656 10.823 19.6336H11.7868C11.7868 18.8423 11.9918 18.093 12.4089 17.378L11.5764 16.8924ZM10.823 19.6336C10.823 20.2604 10.9635 20.8183 11.3156 21.2356L12.0522 20.6141C11.899 20.4325 11.7868 20.1296 11.7868 19.6336H10.823ZM11.3205 21.2414C11.6762 21.6497 12.1572 21.8419 12.7085 21.8419V20.8781C12.3989 20.8781 12.1969 20.7801 12.0473 20.6084L11.3205 21.2414ZM20.4224 22.7636L20.0817 23.1043L20.0817 23.1043L20.4224 22.7636ZM19.9031 17.3738L19.4531 17.2014L19.4521 17.204L19.9031 17.3738ZM21.3347 15.128L21.6755 15.4688L21.6755 15.4688L21.3347 15.128ZM28.3667 14.6228L28.76 14.9012L29.0143 14.5421L28.6796 14.2563L28.3667 14.6228ZM27.0052 16.5457L26.6858 16.9065L27.0881 17.2626L27.3985 16.8241L27.0052 16.5457ZM23.1734 16.5597L22.8327 16.219L22.8327 16.219L23.1734 16.5597ZM22.3453 17.9071L21.8906 17.7476L21.295 19.4452L22.6594 18.2726L22.3453 17.9071ZM26.5982 17.851L26.9164 17.4891L26.9164 17.4891L26.5982 17.851ZM26.1631 22.5951L26.4916 22.9477L26.4917 22.9475L26.1631 22.5951ZM24.2823 21.2196L23.9314 20.8893L23.931 20.8897L24.2823 21.2196ZM24.3946 19.3388L24.0615 19.687L24.0692 19.6944L24.0772 19.7015L24.3946 19.3388ZM22.4015 19.4932L22.7422 19.834L22.7474 19.8287L22.4015 19.4932ZM22.2611 21.3319L22.6018 20.9911L22.5937 20.983L22.5853 20.9753L22.2611 21.3319ZM23.1734 23.2642C22.0856 23.2642 21.3048 22.9645 20.7632 22.4228L20.0817 23.1043C20.85 23.8726 21.9032 24.228 23.1734 24.228V23.2642ZM20.7632 22.4228C20.1966 21.8562 19.8937 21.0849 19.8937 20.0546H18.9299C18.9299 21.2888 19.3008 22.3234 20.0817 23.1043L20.7632 22.4228ZM19.8937 20.0546C19.8937 19.1964 20.0467 18.3603 20.3541 17.5435L19.4521 17.204C19.1044 18.1278 18.9299 19.0788 18.9299 20.0546H19.8937ZM20.3531 17.5461C20.6677 16.7247 21.1094 16.0349 21.6755 15.4688L20.994 14.7873C20.3249 15.4564 19.8122 16.2637 19.4531 17.2014L20.3531 17.5461ZM21.6755 15.4688C22.6302 14.514 23.793 14.0379 25.1946 14.0379V13.0741C23.5457 13.0741 22.1353 13.646 20.994 14.7873L21.6755 15.4688ZM25.1946 14.0379C26.3824 14.0379 27.3227 14.3649 28.0538 14.9892L28.6796 14.2563C27.7451 13.4583 26.5706 13.0741 25.1946 13.0741V14.0379ZM27.9734 14.3443L26.6119 16.2672L27.3985 16.8241L28.76 14.9012L27.9734 14.3443ZM27.3246 16.1848C26.6726 15.6076 25.92 15.3058 25.0823 15.3058V16.2696C25.6669 16.2696 26.1962 16.4731 26.6858 16.9065L27.3246 16.1848ZM25.0823 15.3058C24.2025 15.3058 23.4418 15.6098 22.8327 16.219L23.5142 16.9004C23.9344 16.4803 24.4463 16.2696 25.0823 16.2696V15.3058ZM22.8327 16.219C22.4119 16.6397 22.0994 17.1526 21.8906 17.7476L22.8 18.0667C22.9656 17.5949 23.2051 17.2096 23.5142 16.9004L22.8327 16.219ZM22.6594 18.2726C23.1589 17.8434 23.7911 17.6171 24.5911 17.6171V16.6533C23.5944 16.6533 22.7295 16.9416 22.0312 17.5417L22.6594 18.2726ZM24.5911 17.6171C25.282 17.6171 25.8343 17.821 26.28 18.2129L26.9164 17.4891C26.2766 16.9266 25.4909 16.6533 24.5911 16.6533V17.6171ZM26.28 18.2129C26.7036 18.5853 26.9304 19.0956 26.9304 19.802H27.8942C27.8942 18.8614 27.5783 18.0711 26.9164 17.4891L26.28 18.2129ZM26.9304 19.802C26.9304 20.7466 26.5749 21.5522 25.8344 22.2427L26.4917 22.9475C27.4169 22.0848 27.8942 21.0283 27.8942 19.802H26.9304ZM25.8346 22.2426C25.1041 22.9232 24.2264 23.2642 23.1734 23.2642V24.228C24.4597 24.228 25.5752 23.8016 26.4916 22.9477L25.8346 22.2426ZM23.1734 22.1647C23.7466 22.1647 24.2464 21.9616 24.6335 21.5495L23.931 20.8897C23.738 21.0952 23.4985 21.2009 23.1734 21.2009V22.1647ZM24.6332 21.5499C25.0111 21.1484 25.2133 20.6673 25.2133 20.1248H24.2495C24.2495 20.4058 24.1523 20.6546 23.9314 20.8893L24.6332 21.5499ZM25.2133 20.1248C25.2133 19.6736 25.052 19.2737 24.7119 18.9761L24.0772 19.7015C24.1863 19.7969 24.2495 19.921 24.2495 20.1248H25.2133ZM24.7276 18.9906C24.4082 18.685 24.0011 18.5481 23.5524 18.5481V19.5119C23.7962 19.5119 23.9504 19.5808 24.0615 19.687L24.7276 18.9906ZM23.5524 18.5481C22.9668 18.5481 22.4542 18.7466 22.0555 19.1577L22.7474 19.8287C22.9476 19.6222 23.2022 19.5119 23.5524 19.5119V18.5481ZM22.0607 19.1524C21.6715 19.5417 21.4704 20.0243 21.4704 20.574H22.4342C22.4342 20.2815 22.5326 20.0436 22.7422 19.8339L22.0607 19.1524ZM21.4704 20.574C21.4704 21.0064 21.6157 21.3965 21.9369 21.6885L22.5853 20.9753C22.4947 20.893 22.4342 20.7778 22.4342 20.574H21.4704ZM21.9204 21.6726C22.2568 22.0091 22.6896 22.1647 23.1734 22.1647V21.2009C22.9087 21.2009 22.7332 21.1225 22.6018 20.9911L21.9204 21.6726Z" fill="#D4D4D4" mask="url(#path-4-outside-1_2782_6804)"/>
<defs>
<linearGradient id="paint0_linear_2782_6804" x1="18.7437" y1="3.50708" x2="18.7437" y2="37.0892" gradientUnits="userSpaceOnUse">
<stop stop-color="#14EDED"/>
<stop offset="1" stop-color="#168E8E"/>
</linearGradient>
<linearGradient id="paint1_linear_2782_6804" x1="18.7439" y1="3.50718" x2="18.7439" y2="37.0893" gradientUnits="userSpaceOnUse">
<stop stop-color="#209B9B"/>
<stop offset="1" stop-color="#186666"/>
</linearGradient>
<linearGradient id="paint2_linear_2782_6804" x1="17.8729" y1="12.5636" x2="17.8729" y2="26.5636" gradientUnits="userSpaceOnUse">
<stop offset="0.43941" stop-color="white"/>
<stop offset="0.809217" stop-color="#C9C9C9"/>
</linearGradient>
</defs>
</svg>
